<svg width="18" height="20" viewBox="0 0 18 20" fill="none" xmlns="http://www.w3.org/2000/svg">
<path d="M11.1213 18.1213L11.6517 18.6517L11.1213 18.1213ZM10.1481 18.7716L9.861 18.0787L10.1481 18.7716ZM7.8519 18.7716L7.5649 19.4645L7.8519 18.7716ZM6.87868 18.1213L6.34835 18.6517L6.87868 18.1213ZM6.22836 17.1481L5.53545 17.4351L6.22836 17.1481ZM6.75 15C6.75 14.5858 6.41421 14.25 6 14.25C5.58579 14.25 5.25 14.5858 5.25 15H6.75ZM12.75 15C12.75 14.5858 12.4142 14.25 12 14.25C11.5858 14.25 11.25 14.5858 11.25 15H12.75ZM17 15V15.75C17.2489 15.75 17.4815 15.6266 17.621 15.4205C17.7606 15.2144 17.7888 14.9525 17.6964 14.7215L17 15ZM1 15L0.329181 14.6646C0.212931 14.8971 0.225361 15.1732 0.362011 15.3943C0.498671 15.6154 0.740071 15.75 1 15.75V15ZM11.25 16C11.25 16.2955 11.1918 16.5881 11.0787 16.861L12.4645 17.4351C12.653 16.9801 12.75 16.4925 12.75 16H11.25ZM11.0787 16.861C10.9657 17.134 10.7999 17.3821 10.591 17.591L11.6517 18.6517C11.9999 18.3034 12.2761 17.89 12.4645 17.4351L11.0787 16.861ZM10.591 17.591C10.3821 17.7999 10.134 17.9657 9.861 18.0787L10.4351 19.4645C10.89 19.2761 11.3034 18.9999 11.6517 18.6517L10.591 17.591ZM9.861 18.0787C9.5881 18.1918 9.2955 18.25 9 18.25V19.75C9.4925 19.75 9.9801 19.653 10.4351 19.4645L9.861 18.0787ZM9 18.25C8.7045 18.25 8.4119 18.1918 8.139 18.0787L7.5649 19.4645C8.0199 19.653 8.5075 19.75 9 19.75V18.25ZM8.139 18.0787C7.866 17.9657 7.6179 17.7999 7.409 17.591L6.34835 18.6517C6.69657 18.9999 7.11 19.2761 7.5649 19.4645L8.139 18.0787ZM7.409 17.591C7.2001 17.3821 7.0343 17.134 6.92127 16.861L5.53545 17.4351C5.72391 17.89 6.00013 18.3034 6.34835 18.6517L7.409 17.591ZM6.92127 16.861C6.8082 16.5881 6.75 16.2955 6.75 16H5.25C5.25 16.4925 5.347 16.9801 5.53545 17.4351L6.92127 16.861ZM6.75 16V15H5.25V16H6.75ZM12.75 16V15H11.25V16H12.75ZM14.25 7C14.25 8.6222 14.7818 10.7163 15.2832 12.3456C15.5377 13.1729 15.792 13.9039 15.9827 14.4282C16.0781 14.6905 16.1577 14.9017 16.2138 15.0479C16.2419 15.121 16.264 15.1779 16.2793 15.2169C16.287 15.2364 16.2929 15.2515 16.297 15.2618C16.299 15.267 16.3006 15.271 16.3017 15.2738C16.3023 15.2752 16.3027 15.2763 16.3031 15.2771C16.3032 15.2775 16.3033 15.2778 16.3034 15.278C16.3035 15.2782 16.3035 15.2783 16.3036 15.2783C16.3036 15.2785 16.3036 15.2785 17 15C17.6964 14.7215 17.6964 14.7215 17.6964 14.7215C17.6964 14.7215 17.6963 14.7213 17.6962 14.7211C17.6961 14.7207 17.6958 14.72 17.6954 14.719C17.6946 14.7169 17.6933 14.7137 17.6915 14.7093C17.6881 14.7006 17.6828 14.6872 17.6758 14.6693C17.6618 14.6336 17.641 14.5802 17.6143 14.5107C17.561 14.3718 17.4844 14.1688 17.3923 13.9156C17.208 13.4086 16.9623 12.7021 16.7168 11.9044C16.2182 10.2837 15.75 8.3778 15.75 7H14.25ZM1 15C1.67082 15.3354 1.67089 15.3353 1.67097 15.3351C1.67101 15.335 1.6711 15.3348 1.67117 15.3347C1.67132 15.3344 1.6715 15.334 1.67171 15.3336C1.67213 15.3328 1.67267 15.3317 1.67333 15.3304C1.67464 15.3277 1.67643 15.3241 1.67868 15.3195C1.68318 15.3104 1.68952 15.2974 1.69758 15.2808C1.7137 15.2475 1.73669 15.1994 1.76558 15.1375C1.82333 15.0137 1.90473 14.8346 2.00186 14.6079C2.19596 14.155 2.45378 13.5104 2.71151 12.7372C3.22399 11.1997 3.75 9.1134 3.75 7H2.25C2.25 8.8866 1.77601 10.8003 1.28849 12.2628C1.04622 12.9896 0.804042 13.595 0.623142 14.0171C0.532772 14.2279 0.457922 14.3925 0.406302 14.5031C0.380502 14.5584 0.360522 14.6002 0.347342 14.6274C0.340752 14.6411 0.335861 14.651 0.332791 14.6573C0.331261 14.6604 0.330182 14.6626 0.329572 14.6638C0.329272 14.6644 0.329081 14.6648 0.329021 14.6649C0.328981 14.665 0.328981 14.665 0.329011 14.6649C0.329021 14.6649 0.329062 14.6648 0.329072 14.6648C0.329122 14.6647 0.329181 14.6646 1 15ZM17 14.25H1V15.75H17V14.25ZM9 0.25C5.31779 0.25 2.25 3.31778 2.25 7H3.75C3.75 4.14621 6.14621 1.75 9 1.75V0.25ZM15.75 7C15.75 3.31779 12.6822 0.25 9 0.25V1.75C11.8538 1.75 14.25 4.14621 14.25 7H15.75Z" fill="#001A72"/>
</svg>
