<svg width="134" height="31" viewBox="0 0 134 31" fill="none" xmlns="http://www.w3.org/2000/svg">
<path d="M0.597656 9.58331H3.02344V18.7239C3.23438 22.1224 4.81641 23.8802 7.76953 23.9974C9.62109 23.9974 10.875 23.2591 11.5312 21.7825C11.7656 21.2669 11.9531 20.6458 12.0938 19.9193L11.1445 19.7786C10.6289 21.8646 9.79688 22.9193 8.64844 22.9427C7.66406 22.9427 7.08984 22.2747 6.92578 20.9388C6.90234 20.7044 6.89062 20.47 6.89062 20.2357V9.58331H11.8125V8.66925H6.89062V4.59113L3.02344 5.32941V8.66925H0.597656V9.58331ZM17.6836 16.0169C17.6836 12.4544 18.3164 10.263 19.582 9.44269C20.0977 9.138 20.6953 8.98566 21.375 8.98566C23.1562 8.98566 24.2812 9.99347 24.75 12.0091C24.9844 12.9935 25.1016 14.2825 25.1016 15.8763C25.1016 19.6497 24.3867 21.9232 22.957 22.6966C22.4883 22.931 21.9609 23.0482 21.375 23.0482C19.6172 23.0482 18.5039 22.0403 18.0352 20.0247C17.8008 19.0169 17.6836 17.681 17.6836 16.0169ZM21.5156 8.07159C18.8438 8.07159 16.7344 8.98566 15.1875 10.8138C14.0156 12.22 13.4297 13.9075 13.4297 15.8763C13.4297 18.595 14.3906 20.7278 16.3125 22.2747C17.7188 23.3997 19.3711 23.9622 21.2695 23.9622C23.8711 23.9622 25.9453 23.0247 27.4922 21.1497C28.7109 19.6732 29.3203 17.9153 29.3203 15.8763C29.3203 13.1341 28.3359 11.0364 26.3672 9.58331C25.0078 8.5755 23.3906 8.07159 21.5156 8.07159ZM36 13.9075C36 11.5403 36.375 10.0638 37.125 9.47784C37.5234 9.14972 38.0742 8.98566 38.7773 8.98566C40.1367 8.98566 40.9805 9.65363 41.3086 10.9896C41.4727 11.6458 41.5547 12.595 41.5547 13.8372C41.5547 16.2513 41.1562 17.763 40.3594 18.3724C39.9375 18.6771 39.3984 18.8294 38.7422 18.8294C37.3828 18.8294 36.5391 18.1146 36.2109 16.6849C36.0703 16.0286 36 15.1028 36 13.9075ZM38.8828 8.07159C36.3516 8.07159 34.4531 8.88019 33.1875 10.4974C32.4375 11.4583 32.0625 12.5716 32.0625 13.8372C32.0625 15.5482 32.8945 17.0247 34.5586 18.2669C34.8164 18.4544 35.0742 18.6302 35.332 18.7943C33.9727 18.7708 33.0352 19.3802 32.5195 20.6224C32.3555 21.0443 32.2734 21.4778 32.2734 21.9232C32.2969 23.0716 32.7539 23.9857 33.6445 24.6653C32.9883 25.3919 32.6602 26.1419 32.6602 26.9153C32.6602 28.181 33.4688 29.1302 35.0859 29.763C36.1641 30.1849 37.4648 30.3958 38.9883 30.3958C42.7383 30.3958 45.1875 29.5169 46.3359 27.7591C46.6875 27.1732 46.8633 26.5638 46.8633 25.931C46.8633 23.7747 45.6797 22.5091 43.3125 22.1341C42.9375 22.0638 42.5508 22.0286 42.1523 22.0286L35.1562 21.888C34.4297 21.8646 34.0078 21.5599 33.8906 20.9739C33.8672 20.8802 33.8555 20.7982 33.8555 20.7278C33.8555 20.1888 34.1719 19.8607 34.8047 19.7435C34.9453 19.72 35.0742 19.7083 35.1914 19.7083L38.6367 19.7435H38.7422C41.1797 19.7435 43.0312 18.9232 44.2969 17.2825C45.0938 16.2278 45.4922 15.056 45.4922 13.7669C45.4688 12.056 44.8242 10.6614 43.5586 9.58331C43.8867 8.83331 44.3672 8.44659 45 8.42316C45.3047 8.42316 45.6797 8.62238 46.125 9.02081C46.4531 9.27863 46.7461 9.40753 47.0039 9.40753C47.6602 9.40753 48.0586 9.09113 48.1992 8.45831C48.2227 8.34113 48.2344 8.23566 48.2344 8.14191C48.2344 7.32159 47.8359 6.74738 47.0391 6.41925C46.7109 6.30206 46.3594 6.24347 45.9844 6.24347C44.8125 6.24347 43.8867 6.87628 43.207 8.14191C43.043 8.44659 42.9141 8.75128 42.8203 9.05597C41.7188 8.39972 40.4062 8.07159 38.8828 8.07159ZM38.9883 29.4818C36.3398 29.4818 34.6992 28.8607 34.0664 27.6185C33.9258 27.3372 33.8555 27.0443 33.8555 26.7396C33.8789 26.2005 34.0898 25.6614 34.4883 25.1224C34.957 25.2864 35.4141 25.3685 35.8594 25.3685L42.4336 25.4388C43.9336 25.4622 44.8008 25.7318 45.0352 26.2474C45.1289 26.4349 45.1758 26.6458 45.1758 26.8802C45.1758 27.9583 44.1562 28.72 42.1172 29.1653C41.1562 29.3763 40.1133 29.4818 38.9883 29.4818ZM56.8477 8.98566C58.3008 8.98566 59.168 9.84113 59.4492 11.5521C59.5195 11.9271 59.5547 12.3138 59.5547 12.7122C59.5547 13.8138 59.1562 14.5052 58.3594 14.7864C57.8438 14.9271 57.0938 14.9857 56.1094 14.9622L53.4023 14.8568C53.4961 11.5286 54.375 9.60675 56.0391 9.09113C56.3203 9.02081 56.5898 8.98566 56.8477 8.98566ZM63.2812 20.0599L62.4375 19.7786C61.7578 21.2552 60.6797 22.2278 59.2031 22.6966C58.7109 22.8607 58.207 22.9427 57.6914 22.9427C54.9492 22.9427 53.5195 20.6107 53.4023 15.9466C53.4023 15.9232 53.4023 15.8997 53.4023 15.8763L56.9531 15.9466C60.4688 16.0169 62.5781 15.513 63.2812 14.4349C63.5156 14.0599 63.6328 13.6146 63.6328 13.0989C63.6328 11.2474 62.6953 9.85284 60.8203 8.91534C59.6484 8.35284 58.3242 8.07159 56.8477 8.07159C54.1523 8.07159 52.0898 9.04425 50.6602 10.9896C49.6523 12.3724 49.1484 14.0482 49.1484 16.0169C49.1484 19.2278 50.332 21.5247 52.6992 22.9075C53.9648 23.6107 55.3828 23.9622 56.9531 23.9622C59.625 23.9622 61.5586 23.013 62.7539 21.1146C62.9648 20.763 63.1406 20.4114 63.2812 20.0599ZM65.1797 9.58331H67.6055V18.7239C67.8164 22.1224 69.3984 23.8802 72.3516 23.9974C74.2031 23.9974 75.457 23.2591 76.1133 21.7825C76.3477 21.2669 76.5352 20.6458 76.6758 19.9193L75.7266 19.7786C75.2109 21.8646 74.3789 22.9193 73.2305 22.9427C72.2461 22.9427 71.6719 22.2747 71.5078 20.9388C71.4844 20.7044 71.4727 20.47 71.4727 20.2357V9.58331H76.3945V8.66925H71.4727V4.59113L67.6055 5.32941V8.66925H65.1797V9.58331ZM84.9727 22.6966H83.8125V14.5403C83.8125 12.4544 84.4805 11.0247 85.8164 10.2513C86.2852 9.99347 86.7539 9.86456 87.2227 9.86456C88.582 9.86456 89.4492 10.5911 89.8242 12.0443C89.918 12.4427 89.9648 12.888 89.9648 13.3802V20.7982C89.9648 21.7591 89.7891 22.3333 89.4375 22.5208C89.1797 22.638 88.7812 22.6966 88.2422 22.6966V23.6107H96.0469C96.0469 23.095 95.8945 22.8021 95.5898 22.7318C95.4492 22.7083 95.3086 22.6966 95.168 22.6966H93.832V13.8021C93.832 11.013 92.8828 9.22003 90.9844 8.42316C90.3984 8.18878 89.7656 8.07159 89.0859 8.07159C87.1875 8.07159 85.6758 8.77472 84.5508 10.181C84.2461 10.6028 84 11.0364 83.8125 11.4818V0.759094H77.6953V1.67316H79.9453V20.7982C79.9453 21.8528 79.5352 22.4622 78.7148 22.6263C78.4336 22.6732 78.0938 22.6966 77.6953 22.6966V23.6107H85.8516C85.8516 23.095 85.6992 22.8021 85.3945 22.7318C85.2539 22.7083 85.1133 22.6966 84.9727 22.6966ZM105.574 8.98566C107.027 8.98566 107.895 9.84113 108.176 11.5521C108.246 11.9271 108.281 12.3138 108.281 12.7122C108.281 13.8138 107.883 14.5052 107.086 14.7864C106.57 14.9271 105.82 14.9857 104.836 14.9622L102.129 14.8568C102.223 11.5286 103.102 9.60675 104.766 9.09113C105.047 9.02081 105.316 8.98566 105.574 8.98566ZM112.008 20.0599L111.164 19.7786C110.484 21.2552 109.406 22.2278 107.93 22.6966C107.438 22.8607 106.934 22.9427 106.418 22.9427C103.676 22.9427 102.246 20.6107 102.129 15.9466C102.129 15.9232 102.129 15.8997 102.129 15.8763L105.68 15.9466C109.195 16.0169 111.305 15.513 112.008 14.4349C112.242 14.0599 112.359 13.6146 112.359 13.0989C112.359 11.2474 111.422 9.85284 109.547 8.91534C108.375 8.35284 107.051 8.07159 105.574 8.07159C102.879 8.07159 100.816 9.04425 99.3867 10.9896C98.3789 12.3724 97.875 14.0482 97.875 16.0169C97.875 19.2278 99.0586 21.5247 101.426 22.9075C102.691 23.6107 104.109 23.9622 105.68 23.9622C108.352 23.9622 110.285 23.013 111.48 21.1146C111.691 20.763 111.867 20.4114 112.008 20.0599ZM122.836 22.6966H120.27V15.0677C120.434 12.8177 121.066 11.306 122.168 10.5325C122.426 10.3685 122.648 10.2864 122.836 10.2864C123.141 10.2864 123.445 10.556 123.75 11.095C124.148 11.845 124.57 12.2903 125.016 12.431C125.227 12.5013 125.449 12.5364 125.684 12.5364C126.527 12.5364 127.125 12.1263 127.477 11.306C127.594 11.0482 127.652 10.7786 127.652 10.4974C127.652 9.37238 127.102 8.66925 126 8.388C125.719 8.31769 125.438 8.28253 125.156 8.28253C123.727 8.28253 122.449 8.86847 121.324 10.0403C120.832 10.5794 120.445 11.1888 120.164 11.8685L119.953 8.56378H114.152V9.44269H116.367V20.7982C116.367 21.806 116.016 22.4036 115.312 22.5911C115.008 22.6614 114.621 22.6966 114.152 22.6966V23.6107H123.68C123.68 23.0716 123.504 22.7786 123.152 22.7318C123.059 22.7083 122.953 22.6966 122.836 22.6966ZM133.523 21.5364C133.523 20.6224 133.113 19.9544 132.293 19.5325C131.941 19.345 131.59 19.2513 131.238 19.2513C130.301 19.2513 129.633 19.6732 129.234 20.5169C129.07 20.845 128.988 21.1849 128.988 21.5364C128.988 22.4974 129.41 23.1771 130.254 23.5755C130.582 23.7161 130.91 23.7864 131.238 23.7864C132.152 23.7864 132.82 23.388 133.242 22.5911C133.43 22.263 133.523 21.9114 133.523 21.5364Z" fill="#1F4BA2"/>
</svg>
